<svg xmlns="http://www.w3.org/2000/svg" xmlns:xlink="http://www.w3.org/1999/xlink" xmlns:a="http://ns.adobe.com/AdobeSVGViewerExtensions/3.0/" version="1.1" enable-background="new 0 0 288 90" xml:space="preserve" viewBox="9 3.93 270 82.14">
<defs>
</defs>
<path fill="#005DAA" d="M25.961,65.916c0,0,7.389-35.722,8.812-43.113c1.421-7.391-5.022-7.485-5.022-7.485H11.086L9,24.605  c0,0,7.392-0.379,14.023,0.096c6.633,0.473,4.927,7.295,4.927,7.295s-3.695,16.202-5.212,23.404c-1.515,7.199-4.735,6.82-4.735,6.82  h-2.844l-1.609,9.855c0,0,2.936,0,7.199,0.094C25.012,72.265,25.961,65.916,25.961,65.916z"/>
<path fill="#005DAA" d="M31.36,76.054c1.233-6.82,12.601-63.388,12.601-63.388s2.559-8.527-4.168-8.527c-6.669,0-26.161,0-26.498,0  c-0.002,0-0.03,0-0.03,0l-0.008,0.033l-2.076,9.348l19.422-0.095c0,0,7.297,0.567,5.685,7.864  c-1.61,7.295-9.949,48.039-9.949,48.039s-0.756,3.791-3.6,3.885c-2.842,0.095-9.474,0-9.474,0l-0.649,3.943l-0.962,5.815h8.563  h5.175C25.392,82.971,30.129,82.876,31.36,76.054z"/>
<path fill="#005DAA" d="M45.099,12.951c0,0-9.758,52.113-11.938,61.397c-2.18,9.287,6.158,8.623,6.158,8.623H52.11l1.705-9.476  c0,0-3.79,0.285-9.096-0.095c-5.306-0.379-4.074-7.39-4.074-7.39s7.666-41.737,9.095-47.566c1.262-5.139,12.411-4.264,12.411-4.264  h35.056l2.56-10.232c0,0-37.115-0.041-42.445,0C44.72,4.042,45.099,12.951,45.099,12.951z"/>
<path fill="#005DAA" d="M50.689,22.33c0,0-6.538,32.691-8.435,41.407c-1.894,8.718,4.171,8.054,4.171,8.054h7.863l1.988-9.854  c-7.958-0.569-6.537-5.781-6.537-5.781s4.358-23.307,5.78-27.572c1.421-4.264,7.862-4.357,7.862-4.357h31.172l2.085-8.528  c0,0-29.856-0.052-36.382,0C51.381,15.768,50.689,22.33,50.689,22.33z"/>
<path fill="#005DAA" d="M91.741,32.813c-0.822,0.554-1.518,1.241-2.081,2.063c-0.563,0.823-0.985,1.694-1.269,2.621  c-0.282,0.925-0.425,1.873-0.425,2.847c0,1.864,0.572,3.311,1.717,4.345c1.146,1.031,2.742,1.547,4.787,1.547  c0.891,0,1.733-0.105,2.527-0.315c0.795-0.213,1.624-0.63,2.487-1.257c0.862-0.628,1.563-1.391,2.104-2.289  c0.54-0.898,0.905-1.768,1.094-2.609c0.188-0.84,0.283-1.589,0.283-2.245c0-1.702-0.512-3.135-1.534-4.3  c-1.022-1.164-2.624-1.748-4.803-1.748c-0.842,0-1.66,0.084-2.456,0.255C93.375,31.896,92.563,32.256,91.741,32.813z M97.93,35.439  c0.466,0.467,0.7,1.154,0.7,2.067c0,0.413-0.137,1.106-0.411,2.081c-0.272,0.973-0.708,1.779-1.305,2.42  c-0.598,0.643-1.321,0.961-2.177,0.961c-0.763,0-1.358-0.238-1.787-0.719c-0.433-0.477-0.647-1.078-0.647-1.804  c0-0.687,0.147-1.515,0.44-2.487c0.295-0.977,0.731-1.754,1.315-2.34c0.582-0.584,1.279-0.877,2.087-0.877  C96.87,34.742,97.465,34.973,97.93,35.439z"/>
<path fill="#005DAA" d="M108.96,37.734l-0.037-0.037l0.457-2.035h-3.712l-2.204,10.337h3.976l0.825-3.866  c0.258-1.203,0.624-2.078,1.095-2.623c0.474-0.546,1.088-0.819,1.845-0.819c0.238,0,0.509,0.03,0.814,0.09l1.454-3.046  c-0.484-0.206-0.937-0.311-1.357-0.311c-0.556,0-1.066,0.156-1.532,0.467C110.116,36.205,109.576,36.818,108.96,37.734z"/>
<path fill="#005DAA" d="M115.334,36.826c-0.693,0.553-1.241,1.236-1.644,2.051c-0.405,0.814-0.608,1.684-0.608,2.605  c0,1.332,0.434,2.457,1.298,3.377c0.865,0.917,2.322,1.376,4.371,1.376c1.41,0,2.582-0.228,3.52-0.681  c0.937-0.451,1.695-1.193,2.277-2.225l-3.832-0.361c-0.46,0.613-1.08,0.922-1.856,0.922c-1.146,0-1.773-0.686-1.887-2.053h7.935  c0.175-0.979,0.263-1.668,0.263-2.072c0-1.219-0.419-2.249-1.262-3.086c-0.841-0.837-2.231-1.256-4.17-1.256  c-0.901,0-1.688,0.096-2.357,0.287C116.708,35.904,116.026,36.273,115.334,36.826z M120.804,38.165  c0.316,0.263,0.476,0.651,0.476,1.163c0,0.247-0.021,0.441-0.067,0.58h-3.878c0.215-0.709,0.53-1.241,0.941-1.602  c0.413-0.357,0.865-0.535,1.356-0.535C120.096,37.771,120.486,37.901,120.804,38.165z"/>
<path fill="#005DAA" d="M128.361,37.239c-0.988,1.212-1.479,2.64-1.479,4.282c0,1.227,0.313,2.216,0.941,2.967  c0.628,0.748,1.473,1.124,2.534,1.124c1.164,0,2.185-0.458,3.064-1.376l0.037,0.039l-0.341,1.551  c-0.149,0.665-0.38,1.162-0.695,1.491c-0.317,0.329-0.715,0.493-1.19,0.493c-0.725,0-1.104-0.347-1.142-1.043l-3.803-0.531  c-0.012,0.098-0.021,0.257-0.021,0.477c0,0.711,0.235,1.369,0.702,1.977c0.468,0.608,1.028,1.011,1.681,1.204  c0.651,0.195,1.568,0.293,2.75,0.293c1.685,0,2.966-0.321,3.85-0.961c0.882-0.64,1.528-1.923,1.938-3.846l2.073-9.717h-3.687  l-0.321,1.467c-0.833-1.137-1.881-1.705-3.143-1.705C130.596,35.423,129.346,36.03,128.361,37.239z M133.984,38.479  c0.261,0.275,0.392,0.626,0.392,1.054c0,0.698-0.184,1.441-0.553,2.229c-0.37,0.783-0.919,1.178-1.651,1.178  c-0.408,0-0.743-0.137-1.006-0.412c-0.264-0.275-0.394-0.656-0.394-1.14c0-0.843,0.224-1.606,0.67-2.292  c0.446-0.687,0.977-1.027,1.584-1.027C133.402,38.068,133.72,38.205,133.984,38.479z"/>
<path fill="#005DAA" d="M140.759,38.531c-0.521,0.975-0.778,1.983-0.778,3.029c0,1.332,0.432,2.443,1.3,3.337  c0.865,0.893,2.208,1.338,4.024,1.338c1.433,0,2.64-0.289,3.619-0.867c0.98-0.579,1.717-1.361,2.205-2.348  c0.486-0.986,0.73-1.957,0.73-2.912c0-1.252-0.425-2.348-1.273-3.283c-0.851-0.936-2.202-1.402-4.059-1.402  c-1.363,0-2.535,0.275-3.518,0.822C142.026,36.796,141.275,37.556,140.759,38.531z M147.475,38.501  c0.331,0.269,0.495,0.738,0.495,1.406c0,0.923-0.218,1.765-0.65,2.521c-0.433,0.756-1.019,1.133-1.758,1.133  c-0.475,0-0.872-0.19-1.199-0.57c-0.327-0.379-0.49-0.854-0.49-1.426c0-0.793,0.208-1.57,0.625-2.33  c0.418-0.759,1.045-1.14,1.88-1.14C146.778,38.096,147.145,38.232,147.475,38.501z"/>
<path fill="#005DAA" d="M158.322,37.227l0.342-1.565h-3.714l-2.221,10.337h4.006l0.964-4.483c0.22-1.029,0.547-1.816,0.982-2.361  c0.433-0.547,0.94-0.818,1.524-0.818c0.518,0,0.775,0.279,0.775,0.844c0,0.167-0.121,0.838-0.368,2.014l-1.022,4.806h3.974  l1.197-5.646c0.259-1.219,0.389-2.039,0.389-2.456c0-0.693-0.231-1.279-0.7-1.758c-0.468-0.478-1.168-0.716-2.101-0.716  c-1.569,0-2.898,0.614-3.987,1.842L158.322,37.227z"/>
<path fill="#005DAA" d="M100.697,60.49c0.818-1.449,1.229-3.028,1.229-4.736c0-1.779-0.479-3.223-1.437-4.328  c-0.957-1.104-2.479-1.655-4.57-1.655h-5.882l-2.992,14.287h7.539c1.016,0,2.082-0.233,3.202-0.696  C98.905,62.896,99.876,61.938,100.697,60.49z M92.163,60.879l1.666-7.96h1.405c0.887,0,1.501,0.213,1.843,0.637  c0.341,0.425,0.514,1.003,0.514,1.734c0,1.239-0.298,2.479-0.892,3.723c-0.592,1.244-1.497,1.866-2.709,1.866H92.163z"/>
<path fill="#005DAA" d="M112.115,63.614c0.937-0.451,1.694-1.193,2.276-2.226l-3.83-0.36c-0.461,0.613-1.079,0.921-1.858,0.921  c-1.144,0-1.773-0.685-1.884-2.052h7.933c0.176-0.979,0.265-1.669,0.265-2.072c0-1.22-0.422-2.25-1.265-3.086  c-0.841-0.837-2.23-1.257-4.17-1.257c-0.898,0-1.686,0.097-2.357,0.287c-0.672,0.193-1.354,0.563-2.047,1.116  c-0.689,0.552-1.24,1.235-1.643,2.051c-0.406,0.814-0.607,1.684-0.607,2.604c0,1.332,0.433,2.458,1.297,3.377  c0.865,0.918,2.322,1.377,4.373,1.377C110.007,64.295,111.18,64.067,112.115,63.614z M107.179,57.968  c0.217-0.709,0.53-1.242,0.942-1.602c0.412-0.357,0.863-0.536,1.355-0.536c0.463,0,0.854,0.131,1.172,0.395  c0.318,0.263,0.477,0.651,0.477,1.163c0,0.246-0.023,0.441-0.069,0.58H107.179z"/>
<path fill="#005DAA" d="M119.23,68.01l1.143-5.348c0.743,1.089,1.842,1.633,3.296,1.633c1.427,0,2.609-0.65,3.546-1.955  c0.936-1.302,1.403-2.829,1.403-4.579c0-1.309-0.312-2.35-0.936-3.12c-0.622-0.772-1.518-1.158-2.684-1.158  c-0.634,0-1.174,0.091-1.623,0.271c-0.451,0.179-0.959,0.531-1.526,1.056l-0.038-0.04l0.194-1.048h-3.674l-3.081,14.288H119.23z   M121.545,61.176c-0.31-0.297-0.465-0.748-0.465-1.354c0-0.852,0.197-1.687,0.591-2.501c0.395-0.816,0.961-1.224,1.697-1.224  c0.371,0,0.69,0.139,0.957,0.416c0.267,0.276,0.402,0.731,0.402,1.363c0,1.04-0.209,1.923-0.627,2.651  c-0.417,0.729-0.915,1.094-1.495,1.094C122.206,61.622,121.854,61.473,121.545,61.176z"/>
<path fill="#005DAA" d="M132.649,54.283c-0.859,0.534-1.406,1.292-1.649,2.276l3.713,0.398c0.214-0.463,0.463-0.766,0.745-0.911  c0.284-0.144,0.652-0.217,1.107-0.217c0.437,0,0.785,0.077,1.05,0.231c0.263,0.154,0.395,0.36,0.395,0.618  c0,0.16-0.04,0.392-0.118,0.694c-0.384,0.118-1.152,0.236-2.303,0.361c-1.295,0.128-2.315,0.28-3.063,0.451  c-0.749,0.173-1.379,0.5-1.888,0.979c-0.512,0.479-0.767,1.178-0.767,2.093c0,0.804,0.285,1.511,0.858,2.121  c0.57,0.609,1.511,0.915,2.816,0.915c1.282,0,2.44-0.473,3.482-1.417c0,0.378,0.047,0.771,0.138,1.18h3.872  c-0.159-0.487-0.237-0.965-0.237-1.433c0-0.551,0.166-1.533,0.5-2.944c0.358-1.486,0.54-2.556,0.54-3.205  c0-0.975-0.358-1.716-1.071-2.229c-0.716-0.51-2.093-0.765-4.135-0.765C134.837,53.482,133.506,53.749,132.649,54.283z   M136.463,61.525c-0.491,0.401-0.985,0.603-1.485,0.603c-0.356,0-0.646-0.095-0.874-0.285c-0.229-0.189-0.341-0.446-0.341-0.772  c0-0.315,0.159-0.589,0.477-0.819s1.388-0.495,3.212-0.798C137.282,60.434,136.953,61.126,136.463,61.525z"/>
<path fill="#005DAA" d="M152.809,53.793c-0.486-0.205-0.941-0.311-1.36-0.311c-0.555,0-1.066,0.157-1.532,0.468  c-0.465,0.313-1.006,0.927-1.621,1.844l-0.041-0.038l0.461-2.034h-3.716l-2.2,10.336h3.974l0.825-3.866  c0.259-1.202,0.625-2.077,1.096-2.623c0.472-0.546,1.085-0.819,1.846-0.819c0.237,0,0.51,0.031,0.813,0.091L152.809,53.793z"/>
<path fill="#005DAA" d="M155.348,53.726h-1.44l-0.58,2.852h1.417L154,60.097c-0.19,0.905-0.286,1.461-0.286,1.667  c0,0.629,0.23,1.209,0.697,1.74c0.465,0.531,1.254,0.797,2.367,0.797c0.559,0,1.437-0.082,2.636-0.245l0.596-2.845  c-0.629,0.12-1.04,0.178-1.236,0.178c-0.619,0-0.931-0.225-0.931-0.674c0-0.175,0.035-0.341,0.105-0.498l0.741-3.64h2.081  l0.605-2.852h-2.052l0.812-3.837l-4.445,2.22L155.348,53.726z"/>
<path fill="#005DAA" d="M176.173,57.201c0,0.084-0.014,0.235-0.039,0.448c-0.027,0.214-0.159,0.883-0.4,2.002l-0.956,4.406h3.988  l1.466-6.78c0.084-0.397,0.125-0.81,0.125-1.232c0-0.71-0.233-1.313-0.699-1.813c-0.467-0.498-1.166-0.749-2.099-0.749  c-0.694,0-1.349,0.125-1.964,0.374c-0.615,0.248-1.295,0.712-2.042,1.39c-0.187-0.562-0.533-0.995-1.03-1.302  c-0.496-0.307-1.07-0.462-1.717-0.462c-1.413,0-2.685,0.586-3.819,1.758l-0.037-0.038l0.321-1.48h-3.696l-2.22,10.336h3.997  l1.063-4.952c0.214-0.985,0.543-1.684,0.983-2.096c0.445-0.41,0.866-0.615,1.266-0.615c0.531,0,0.796,0.263,0.796,0.787  c0,0.111-0.014,0.272-0.045,0.487c-0.027,0.212-0.167,0.901-0.413,2.061l-0.936,4.328h3.988l0.987-4.589  c0.226-1.063,0.531-1.843,0.915-2.336c0.385-0.491,0.87-0.738,1.46-0.738C175.92,56.395,176.173,56.663,176.173,57.201z"/>
<path fill="#005DAA" d="M191.064,63.614c0.937-0.451,1.696-1.193,2.276-2.226l-3.831-0.36c-0.46,0.613-1.077,0.921-1.857,0.921  c-1.143,0-1.773-0.685-1.885-2.052h7.935c0.176-0.979,0.264-1.669,0.264-2.072c0-1.22-0.421-2.25-1.264-3.086  c-0.841-0.837-2.231-1.257-4.17-1.257c-0.899,0-1.686,0.097-2.357,0.287c-0.672,0.193-1.354,0.563-2.048,1.116  c-0.689,0.552-1.238,1.235-1.643,2.051c-0.405,0.814-0.607,1.684-0.607,2.604c0,1.332,0.434,2.458,1.298,3.377  c0.864,0.918,2.322,1.377,4.372,1.377C188.955,64.295,190.129,64.067,191.064,63.614z M186.128,57.968  c0.218-0.709,0.531-1.242,0.942-1.602c0.411-0.357,0.864-0.536,1.356-0.536c0.462,0,0.854,0.131,1.172,0.395  c0.317,0.263,0.476,0.651,0.476,1.163c0,0.246-0.023,0.441-0.068,0.58H186.128z"/>
<path fill="#005DAA" d="M202.881,57.239c0,0.167-0.124,0.837-0.371,2.013l-1.022,4.806h3.974l1.198-5.645  c0.258-1.22,0.388-2.039,0.388-2.456c0-0.694-0.233-1.28-0.7-1.758c-0.468-0.478-1.168-0.717-2.101-0.717  c-1.569,0-2.897,0.614-3.987,1.843l-0.039-0.039l0.341-1.564h-3.714l-2.22,10.336h4.005l0.965-4.482  c0.219-1.029,0.546-1.816,0.981-2.362c0.433-0.546,0.94-0.818,1.524-0.818C202.62,56.395,202.881,56.675,202.881,57.239z"/>
<path fill="#005DAA" d="M210.792,53.726h-1.44l-0.582,2.852h1.419l-0.745,3.52c-0.192,0.905-0.286,1.461-0.286,1.667  c0,0.629,0.231,1.209,0.695,1.74c0.467,0.531,1.257,0.797,2.367,0.797c0.561,0,1.438-0.082,2.638-0.245l0.596-2.845  c-0.629,0.12-1.038,0.178-1.236,0.178c-0.619,0-0.931-0.225-0.931-0.674c0-0.175,0.035-0.341,0.105-0.498l0.741-3.64h2.081  l0.604-2.852h-2.05l0.81-3.837l-4.442,2.22L210.792,53.726z"/>
<path fill="#005DAA" d="M88.179,74.65c-0.517,0.975-0.775,1.983-0.775,3.029c0,1.332,0.433,2.443,1.298,3.337  c0.867,0.893,2.21,1.338,4.025,1.338c1.433,0,2.641-0.289,3.62-0.867c0.98-0.577,1.716-1.36,2.204-2.348  c0.488-0.985,0.731-1.956,0.731-2.911c0-1.253-0.423-2.348-1.274-3.283c-0.851-0.936-2.203-1.402-4.06-1.402  c-1.362,0-2.534,0.275-3.518,0.822C89.448,72.915,88.697,73.676,88.179,74.65z M94.896,74.621c0.331,0.269,0.496,0.738,0.496,1.406  c0,0.923-0.217,1.765-0.65,2.521c-0.434,0.757-1.02,1.134-1.758,1.134c-0.474,0-0.873-0.19-1.199-0.57  c-0.327-0.379-0.49-0.854-0.49-1.426c0-0.793,0.209-1.57,0.626-2.33c0.417-0.759,1.044-1.14,1.88-1.14  C94.202,74.216,94.566,74.352,94.896,74.621z"/>
<path fill="#005DAA" d="M103.992,68.464c-0.289,0.295-0.498,0.622-0.624,0.98c-0.126,0.356-0.317,1.135-0.572,2.338h-1.463  l-0.588,2.851h1.442l-1.591,7.485h3.995l1.592-7.485h1.862l0.6-2.851h-1.854c0.172-0.815,0.347-1.291,0.522-1.429  c0.179-0.138,0.412-0.207,0.701-0.207c0.385,0,0.843,0.08,1.368,0.238l0.629-2.355c-1.312-0.291-2.429-0.438-3.35-0.438  c-0.616,0-1.145,0.072-1.581,0.215C104.644,67.948,104.281,68.169,103.992,68.464z"/>
<polygon fill="#005DAA" points="124.006,71.364 121.687,82.118 126.133,82.118 128.453,71.364 133.103,71.364 133.835,67.83   120.32,67.83 119.579,71.364 "/>
<path fill="#005DAA" d="M137.508,71.782h-3.716l-2.2,10.336h3.974l0.825-3.867c0.257-1.202,0.623-2.077,1.096-2.622  c0.472-0.546,1.085-0.819,1.842-0.819c0.241,0,0.514,0.03,0.817,0.09l1.456-3.046c-0.486-0.206-0.941-0.311-1.36-0.311  c-0.555,0-1.066,0.156-1.532,0.467c-0.465,0.313-1.007,0.927-1.621,1.845l-0.041-0.039L137.508,71.782z"/>
<path fill="#005DAA" d="M148.188,80.938c0,0.377,0.047,0.77,0.137,1.18h3.873c-0.157-0.488-0.235-0.966-0.235-1.433  c0-0.552,0.166-1.533,0.499-2.944c0.359-1.486,0.539-2.557,0.539-3.206c0-0.974-0.356-1.716-1.071-2.229  c-0.714-0.509-2.093-0.764-4.133-0.764c-1.803,0-3.132,0.267-3.988,0.8c-0.858,0.534-1.407,1.293-1.65,2.276l3.714,0.398  c0.214-0.463,0.463-0.766,0.747-0.911c0.282-0.144,0.65-0.216,1.106-0.216c0.436,0,0.784,0.076,1.049,0.23s0.394,0.361,0.394,0.619  c0,0.159-0.037,0.391-0.115,0.693c-0.386,0.118-1.152,0.237-2.305,0.361c-1.293,0.129-2.314,0.28-3.063,0.452  c-0.747,0.172-1.378,0.499-1.89,0.979c-0.509,0.479-0.764,1.178-0.764,2.093c0,0.805,0.284,1.511,0.856,2.121  c0.572,0.609,1.513,0.915,2.819,0.915C145.986,82.354,147.146,81.883,148.188,80.938z M145.262,79.902  c-0.228-0.189-0.341-0.445-0.341-0.772c0-0.315,0.158-0.589,0.476-0.818c0.32-0.231,1.39-0.496,3.212-0.799  c-0.168,0.98-0.495,1.674-0.985,2.072c-0.492,0.401-0.985,0.603-1.485,0.603C145.781,80.188,145.489,80.094,145.262,79.902z"/>
<path fill="#005DAA" d="M162.211,75.299c0,0.167-0.122,0.837-0.369,2.013l-1.022,4.807h3.974l1.195-5.646  c0.259-1.22,0.391-2.038,0.391-2.456c0-0.693-0.235-1.279-0.7-1.758c-0.468-0.477-1.168-0.716-2.101-0.716  c-1.569,0-2.898,0.614-3.987,1.842l-0.041-0.038l0.341-1.564h-3.712l-2.222,10.336h4.005l0.966-4.483  c0.218-1.029,0.545-1.816,0.982-2.362c0.433-0.545,0.94-0.817,1.524-0.817C161.952,74.455,162.211,74.735,162.211,75.299z"/>
<path fill="#005DAA" d="M176.63,81.229c0.985-0.751,1.479-1.658,1.479-2.72c0-0.765-0.251-1.374-0.755-1.83  c-0.506-0.457-1.521-0.799-3.047-1.025c-0.951-0.137-1.535-0.282-1.752-0.441c-0.218-0.158-0.325-0.359-0.325-0.598  c0-0.233,0.121-0.438,0.368-0.612s0.611-0.261,1.09-0.261c0.818,0,1.283,0.307,1.393,0.919l3.712-0.399  c-0.188-0.997-0.65-1.7-1.388-2.106c-0.738-0.408-1.801-0.612-3.183-0.612c-1.211,0-2.229,0.166-3.057,0.501  c-0.829,0.334-1.448,0.789-1.857,1.365c-0.41,0.578-0.613,1.168-0.613,1.77c0,0.739,0.272,1.353,0.816,1.838  c0.547,0.486,1.592,0.849,3.13,1.09c0.67,0.102,1.125,0.211,1.366,0.319c0.238,0.109,0.36,0.324,0.36,0.642  c0,0.351-0.167,0.62-0.5,0.807c-0.333,0.189-0.715,0.283-1.148,0.283c-0.931,0-1.481-0.415-1.649-1.248l-3.92,0.341  c0.13,1.108,0.578,1.9,1.345,2.382c0.764,0.482,1.974,0.723,3.625,0.723C174.139,82.354,175.642,81.979,176.63,81.229z"/>
<path fill="#005DAA" d="M186.957,82.354c1.428,0,2.609-0.65,3.547-1.954c0.935-1.303,1.4-2.83,1.4-4.58  c0-1.308-0.31-2.35-0.933-3.119c-0.623-0.773-1.517-1.158-2.685-1.158c-0.633,0-1.174,0.09-1.622,0.271  c-0.451,0.178-0.961,0.53-1.529,1.055l-0.037-0.04l0.194-1.047h-3.675l-3.078,14.287h3.979l1.144-5.348  C184.405,81.812,185.503,82.354,186.957,82.354z M184.832,79.236c-0.31-0.297-0.464-0.749-0.464-1.354  c0-0.852,0.197-1.687,0.592-2.5c0.394-0.817,0.96-1.224,1.695-1.224c0.372,0,0.691,0.138,0.958,0.415  c0.269,0.276,0.401,0.731,0.401,1.364c0,1.039-0.209,1.922-0.627,2.651c-0.417,0.728-0.915,1.093-1.495,1.093  C185.497,79.682,185.142,79.533,184.832,79.236z"/>
<path fill="#005DAA" d="M196.367,72.365c-0.984,0.55-1.734,1.311-2.252,2.285s-0.778,1.983-0.778,3.029  c0,1.332,0.436,2.443,1.302,3.337c0.864,0.893,2.206,1.338,4.024,1.338c1.433,0,2.64-0.289,3.618-0.867  c0.981-0.577,1.716-1.36,2.204-2.348c0.49-0.985,0.735-1.956,0.735-2.911c0-1.253-0.428-2.348-1.278-3.283s-2.202-1.402-4.058-1.402  C198.522,71.543,197.349,71.818,196.367,72.365z M200.833,74.621c0.329,0.269,0.495,0.738,0.495,1.406  c0,0.923-0.219,1.765-0.652,2.521c-0.433,0.757-1.019,1.134-1.758,1.134c-0.47,0-0.872-0.19-1.199-0.57  c-0.327-0.379-0.489-0.854-0.489-1.426c0-0.793,0.207-1.57,0.625-2.33c0.417-0.759,1.046-1.14,1.881-1.14  C200.137,74.216,200.502,74.352,200.833,74.621z"/>
<path fill="#005DAA" d="M216.097,71.854c-0.486-0.206-0.939-0.311-1.36-0.311c-0.555,0-1.066,0.156-1.532,0.467  c-0.467,0.313-1.006,0.927-1.621,1.845l-0.039-0.039l0.459-2.033h-3.714l-2.202,10.336h3.974l0.825-3.867  c0.259-1.202,0.625-2.077,1.096-2.622c0.474-0.546,1.087-0.819,1.844-0.819c0.239,0,0.512,0.03,0.815,0.09L216.097,71.854z"/>
<path fill="#005DAA" d="M218.979,70.168l-0.341,1.618h-1.442l-0.58,2.851h1.417l-0.742,3.52c-0.192,0.905-0.29,1.461-0.29,1.668  c0,0.628,0.232,1.208,0.699,1.74c0.465,0.531,1.254,0.796,2.367,0.796c0.561,0,1.438-0.082,2.636-0.244l0.596-2.846  c-0.629,0.12-1.04,0.179-1.234,0.179c-0.621,0-0.931-0.225-0.931-0.675c0-0.174,0.033-0.341,0.104-0.497l0.741-3.641h2.081  l0.605-2.851h-2.052l0.811-3.838L218.979,70.168z"/>
<path fill="#005DAA" d="M236.196,82.118c-0.159-0.488-0.239-0.966-0.239-1.433c0-0.552,0.169-1.533,0.502-2.944  c0.358-1.486,0.539-2.557,0.539-3.206c0-0.974-0.359-1.716-1.07-2.229c-0.715-0.509-2.093-0.764-4.135-0.764  c-1.801,0-3.13,0.267-3.988,0.8c-0.858,0.534-1.406,1.293-1.647,2.276l3.711,0.398c0.216-0.463,0.465-0.766,0.747-0.911  c0.284-0.144,0.652-0.216,1.109-0.216c0.435,0,0.783,0.076,1.046,0.23s0.396,0.361,0.396,0.619c0,0.159-0.042,0.391-0.118,0.693  c-0.384,0.118-1.15,0.237-2.303,0.361c-1.295,0.129-2.316,0.28-3.064,0.452c-0.749,0.172-1.376,0.499-1.887,0.979  c-0.512,0.479-0.767,1.178-0.767,2.093c0,0.805,0.286,1.511,0.858,2.121c0.572,0.609,1.511,0.915,2.817,0.915  c1.282,0,2.442-0.472,3.482-1.416c0,0.377,0.045,0.77,0.138,1.18H236.196z M229.259,79.902c-0.227-0.189-0.339-0.445-0.339-0.772  c0-0.315,0.159-0.589,0.477-0.818c0.315-0.231,1.387-0.496,3.212-0.799c-0.171,0.98-0.498,1.674-0.99,2.072  c-0.489,0.401-0.981,0.603-1.481,0.603C229.778,80.188,229.486,80.094,229.259,79.902z"/>
<path fill="#005DAA" d="M245.275,79.271c-0.629,0.12-1.041,0.179-1.235,0.179c-0.623,0-0.931-0.225-0.931-0.675  c0-0.174,0.033-0.341,0.104-0.497l0.74-3.641h2.081l0.605-2.851h-2.054l0.813-3.838l-4.444,2.22l-0.343,1.618h-1.44l-0.58,2.851  h1.417l-0.743,3.52c-0.193,0.905-0.29,1.461-0.29,1.668c0,0.628,0.233,1.208,0.7,1.74c0.464,0.531,1.254,0.796,2.367,0.796  c0.561,0,1.437-0.082,2.634-0.244L245.275,79.271z"/>
<polygon fill="#005DAA" points="250.725,82.118 252.93,71.782 248.943,71.782 246.737,82.118 "/>
<polygon fill="#005DAA" points="253.19,70.563 253.772,67.83 249.788,67.83 249.204,70.563 "/>
<path fill="#005DAA" d="M254.604,74.65c-0.517,0.975-0.775,1.983-0.775,3.029c0,1.332,0.433,2.443,1.299,3.337  c0.868,0.893,2.209,1.338,4.027,1.338c1.433,0,2.638-0.289,3.619-0.867c0.979-0.577,1.713-1.36,2.203-2.348  c0.487-0.985,0.732-1.956,0.732-2.911c0-1.253-0.425-2.348-1.275-3.283c-0.849-0.936-2.203-1.402-4.059-1.402  c-1.362,0-2.534,0.275-3.518,0.822C255.873,72.915,255.122,73.676,254.604,74.65z M261.324,74.621  c0.329,0.269,0.494,0.738,0.494,1.406c0,0.923-0.216,1.765-0.648,2.521c-0.434,0.757-1.021,1.134-1.758,1.134  c-0.475,0-0.874-0.19-1.201-0.57c-0.327-0.379-0.492-0.854-0.492-1.426c0-0.793,0.212-1.57,0.629-2.33  c0.417-0.759,1.043-1.14,1.877-1.14C260.627,74.216,260.993,74.352,261.324,74.621z"/>
<path fill="#005DAA" d="M272.171,73.347l0.341-1.564h-3.711l-2.225,10.336h4.008l0.966-4.483c0.218-1.029,0.545-1.816,0.981-2.362  c0.434-0.545,0.94-0.817,1.524-0.817c0.518,0,0.776,0.28,0.776,0.844c0,0.167-0.121,0.837-0.368,2.013l-1.025,4.807h3.975  l1.197-5.646c0.259-1.22,0.39-2.038,0.39-2.456c0-0.693-0.235-1.279-0.699-1.758c-0.469-0.477-1.168-0.716-2.103-0.716  c-1.568,0-2.896,0.614-3.986,1.842L272.171,73.347z"/>
<rect id="_x3C_Slice_x3E__2_" fill="none" width="288" height="90"/>
</svg>