<svg xmlns="http://www.w3.org/2000/svg" viewBox="0 0 100 100" preserveAspectRatio="xMidYMid" width="298" height="298" style="shape-rendering: auto; display: block; background: transparent;" xmlns:xlink="http://www.w3.org/1999/xlink"><g><g transform="rotate(0 50 50)">
  <rect fill="#ff5454" height="16" width="10" ry="8" rx="5" y="18" x="45">
    <animate repeatCount="indefinite" begin="-1.4932126696832577s" dur="1.5384615384615383s" keyTimes="0;1" values="1;0" attributeName="opacity"></animate>
  </rect>
</g><g transform="rotate(10.588235294117647 50 50)">
  <rect fill="#ff5454" height="16" width="10" ry="8" rx="5" y="18" x="45">
    <animate repeatCount="indefinite" begin="-1.4479638009049773s" dur="1.5384615384615383s" keyTimes="0;1" values="1;0" attributeName="opacity"></animate>
  </rect>
</g><g transform="rotate(21.176470588235293 50 50)">
  <rect fill="#ff5454" height="16" width="10" ry="8" rx="5" y="18" x="45">
    <animate repeatCount="indefinite" begin="-1.4027149321266967s" dur="1.5384615384615383s" keyTimes="0;1" values="1;0" attributeName="opacity"></animate>
  </rect>
</g><g transform="rotate(31.764705882352942 50 50)">
  <rect fill="#ff5454" height="16" width="10" ry="8" rx="5" y="18" x="45">
    <animate repeatCount="indefinite" begin="-1.3574660633484161s" dur="1.5384615384615383s" keyTimes="0;1" values="1;0" attributeName="opacity"></animate>
  </rect>
</g><g transform="rotate(42.35294117647059 50 50)">
  <rect fill="#ff5454" height="16" width="10" ry="8" rx="5" y="18" x="45">
    <animate repeatCount="indefinite" begin="-1.3122171945701357s" dur="1.5384615384615383s" keyTimes="0;1" values="1;0" attributeName="opacity"></animate>
  </rect>
</g><g transform="rotate(52.94117647058823 50 50)">
  <rect fill="#ff5454" height="16" width="10" ry="8" rx="5" y="18" x="45">
    <animate repeatCount="indefinite" begin="-1.2669683257918551s" dur="1.5384615384615383s" keyTimes="0;1" values="1;0" attributeName="opacity"></animate>
  </rect>
</g><g transform="rotate(63.529411764705884 50 50)">
  <rect fill="#ff5454" height="16" width="10" ry="8" rx="5" y="18" x="45">
    <animate repeatCount="indefinite" begin="-1.2217194570135745s" dur="1.5384615384615383s" keyTimes="0;1" values="1;0" attributeName="opacity"></animate>
  </rect>
</g><g transform="rotate(74.11764705882354 50 50)">
  <rect fill="#ff5454" height="16" width="10" ry="8" rx="5" y="18" x="45">
    <animate repeatCount="indefinite" begin="-1.176470588235294s" dur="1.5384615384615383s" keyTimes="0;1" values="1;0" attributeName="opacity"></animate>
  </rect>
</g><g transform="rotate(84.70588235294117 50 50)">
  <rect fill="#ff5454" height="16" width="10" ry="8" rx="5" y="18" x="45">
    <animate repeatCount="indefinite" begin="-1.1312217194570136s" dur="1.5384615384615383s" keyTimes="0;1" values="1;0" attributeName="opacity"></animate>
  </rect>
</g><g transform="rotate(95.29411764705883 50 50)">
  <rect fill="#ff5454" height="16" width="10" ry="8" rx="5" y="18" x="45">
    <animate repeatCount="indefinite" begin="-1.085972850678733s" dur="1.5384615384615383s" keyTimes="0;1" values="1;0" attributeName="opacity"></animate>
  </rect>
</g><g transform="rotate(105.88235294117646 50 50)">
  <rect fill="#ff5454" height="16" width="10" ry="8" rx="5" y="18" x="45">
    <animate repeatCount="indefinite" begin="-1.0407239819004523s" dur="1.5384615384615383s" keyTimes="0;1" values="1;0" attributeName="opacity"></animate>
  </rect>
</g><g transform="rotate(116.47058823529412 50 50)">
  <rect fill="#ff5454" height="16" width="10" ry="8" rx="5" y="18" x="45">
    <animate repeatCount="indefinite" begin="-0.9954751131221719s" dur="1.5384615384615383s" keyTimes="0;1" values="1;0" attributeName="opacity"></animate>
  </rect>
</g><g transform="rotate(127.05882352941177 50 50)">
  <rect fill="#ff5454" height="16" width="10" ry="8" rx="5" y="18" x="45">
    <animate repeatCount="indefinite" begin="-0.9502262443438914s" dur="1.5384615384615383s" keyTimes="0;1" values="1;0" attributeName="opacity"></animate>
  </rect>
</g><g transform="rotate(137.64705882352942 50 50)">
  <rect fill="#ff5454" height="16" width="10" ry="8" rx="5" y="18" x="45">
    <animate repeatCount="indefinite" begin="-0.9049773755656108s" dur="1.5384615384615383s" keyTimes="0;1" values="1;0" attributeName="opacity"></animate>
  </rect>
</g><g transform="rotate(148.23529411764707 50 50)">
  <rect fill="#ff5454" height="16" width="10" ry="8" rx="5" y="18" x="45">
    <animate repeatCount="indefinite" begin="-0.8597285067873303s" dur="1.5384615384615383s" keyTimes="0;1" values="1;0" attributeName="opacity"></animate>
  </rect>
</g><g transform="rotate(158.8235294117647 50 50)">
  <rect fill="#ff5454" height="16" width="10" ry="8" rx="5" y="18" x="45">
    <animate repeatCount="indefinite" begin="-0.8144796380090498s" dur="1.5384615384615383s" keyTimes="0;1" values="1;0" attributeName="opacity"></animate>
  </rect>
</g><g transform="rotate(169.41176470588235 50 50)">
  <rect fill="#ff5454" height="16" width="10" ry="8" rx="5" y="18" x="45">
    <animate repeatCount="indefinite" begin="-0.7692307692307692s" dur="1.5384615384615383s" keyTimes="0;1" values="1;0" attributeName="opacity"></animate>
  </rect>
</g><g transform="rotate(180 50 50)">
  <rect fill="#ff5454" height="16" width="10" ry="8" rx="5" y="18" x="45">
    <animate repeatCount="indefinite" begin="-0.7239819004524887s" dur="1.5384615384615383s" keyTimes="0;1" values="1;0" attributeName="opacity"></animate>
  </rect>
</g><g transform="rotate(190.58823529411765 50 50)">
  <rect fill="#ff5454" height="16" width="10" ry="8" rx="5" y="18" x="45">
    <animate repeatCount="indefinite" begin="-0.6787330316742081s" dur="1.5384615384615383s" keyTimes="0;1" values="1;0" attributeName="opacity"></animate>
  </rect>
</g><g transform="rotate(201.1764705882353 50 50)">
  <rect fill="#ff5454" height="16" width="10" ry="8" rx="5" y="18" x="45">
    <animate repeatCount="indefinite" begin="-0.6334841628959276s" dur="1.5384615384615383s" keyTimes="0;1" values="1;0" attributeName="opacity"></animate>
  </rect>
</g><g transform="rotate(211.76470588235293 50 50)">
  <rect fill="#ff5454" height="16" width="10" ry="8" rx="5" y="18" x="45">
    <animate repeatCount="indefinite" begin="-0.588235294117647s" dur="1.5384615384615383s" keyTimes="0;1" values="1;0" attributeName="opacity"></animate>
  </rect>
</g><g transform="rotate(222.35294117647058 50 50)">
  <rect fill="#ff5454" height="16" width="10" ry="8" rx="5" y="18" x="45">
    <animate repeatCount="indefinite" begin="-0.5429864253393665s" dur="1.5384615384615383s" keyTimes="0;1" values="1;0" attributeName="opacity"></animate>
  </rect>
</g><g transform="rotate(232.94117647058823 50 50)">
  <rect fill="#ff5454" height="16" width="10" ry="8" rx="5" y="18" x="45">
    <animate repeatCount="indefinite" begin="-0.4977375565610859s" dur="1.5384615384615383s" keyTimes="0;1" values="1;0" attributeName="opacity"></animate>
  </rect>
</g><g transform="rotate(243.52941176470588 50 50)">
  <rect fill="#ff5454" height="16" width="10" ry="8" rx="5" y="18" x="45">
    <animate repeatCount="indefinite" begin="-0.4524886877828054s" dur="1.5384615384615383s" keyTimes="0;1" values="1;0" attributeName="opacity"></animate>
  </rect>
</g><g transform="rotate(254.11764705882354 50 50)">
  <rect fill="#ff5454" height="16" width="10" ry="8" rx="5" y="18" x="45">
    <animate repeatCount="indefinite" begin="-0.4072398190045249s" dur="1.5384615384615383s" keyTimes="0;1" values="1;0" attributeName="opacity"></animate>
  </rect>
</g><g transform="rotate(264.70588235294116 50 50)">
  <rect fill="#ff5454" height="16" width="10" ry="8" rx="5" y="18" x="45">
    <animate repeatCount="indefinite" begin="-0.36199095022624433s" dur="1.5384615384615383s" keyTimes="0;1" values="1;0" attributeName="opacity"></animate>
  </rect>
</g><g transform="rotate(275.29411764705884 50 50)">
  <rect fill="#ff5454" height="16" width="10" ry="8" rx="5" y="18" x="45">
    <animate repeatCount="indefinite" begin="-0.3167420814479638s" dur="1.5384615384615383s" keyTimes="0;1" values="1;0" attributeName="opacity"></animate>
  </rect>
</g><g transform="rotate(285.88235294117646 50 50)">
  <rect fill="#ff5454" height="16" width="10" ry="8" rx="5" y="18" x="45">
    <animate repeatCount="indefinite" begin="-0.27149321266968324s" dur="1.5384615384615383s" keyTimes="0;1" values="1;0" attributeName="opacity"></animate>
  </rect>
</g><g transform="rotate(296.47058823529414 50 50)">
  <rect fill="#ff5454" height="16" width="10" ry="8" rx="5" y="18" x="45">
    <animate repeatCount="indefinite" begin="-0.2262443438914027s" dur="1.5384615384615383s" keyTimes="0;1" values="1;0" attributeName="opacity"></animate>
  </rect>
</g><g transform="rotate(307.05882352941177 50 50)">
  <rect fill="#ff5454" height="16" width="10" ry="8" rx="5" y="18" x="45">
    <animate repeatCount="indefinite" begin="-0.18099547511312217s" dur="1.5384615384615383s" keyTimes="0;1" values="1;0" attributeName="opacity"></animate>
  </rect>
</g><g transform="rotate(317.6470588235294 50 50)">
  <rect fill="#ff5454" height="16" width="10" ry="8" rx="5" y="18" x="45">
    <animate repeatCount="indefinite" begin="-0.13574660633484162s" dur="1.5384615384615383s" keyTimes="0;1" values="1;0" attributeName="opacity"></animate>
  </rect>
</g><g transform="rotate(328.2352941176471 50 50)">
  <rect fill="#ff5454" height="16" width="10" ry="8" rx="5" y="18" x="45">
    <animate repeatCount="indefinite" begin="-0.09049773755656108s" dur="1.5384615384615383s" keyTimes="0;1" values="1;0" attributeName="opacity"></animate>
  </rect>
</g><g transform="rotate(338.8235294117647 50 50)">
  <rect fill="#ff5454" height="16" width="10" ry="8" rx="5" y="18" x="45">
    <animate repeatCount="indefinite" begin="-0.04524886877828054s" dur="1.5384615384615383s" keyTimes="0;1" values="1;0" attributeName="opacity"></animate>
  </rect>
</g><g transform="rotate(349.4117647058824 50 50)">
  <rect fill="#ff5454" height="16" width="10" ry="8" rx="5" y="18" x="45">
    <animate repeatCount="indefinite" begin="0s" dur="1.5384615384615383s" keyTimes="0;1" values="1;0" attributeName="opacity"></animate>
  </rect>
</g><g></g></g><!-- [ldio] generated by https://loading.io --></svg>